<?xml version="1.0" encoding="utf-8"?>
<!-- Generator: Adobe Illustrator 16.0.0, SVG Export Plug-In . SVG Version: 6.00 Build 0)  -->
<!DOCTYPE svg PUBLIC "-//W3C//DTD SVG 1.1//EN" "http://www.w3.org/Graphics/SVG/1.1/DTD/svg11.dtd">
<svg version="1.1" id="Capa_1" xmlns="http://www.w3.org/2000/svg" xmlns:xlink="http://www.w3.org/1999/xlink" x="0px" y="0px"
	 width="79.536px" height="79.536px" viewBox="0 0 79.536 79.536" enable-background="new 0 0 79.536 79.536" xml:space="preserve">
<g>
	<path fill="#010002" d="M39.769,5.168c19.077,0,34.6,15.521,34.6,34.595v34.604H5.167V39.764
		C5.167,20.69,20.694,5.168,39.769,5.168 M39.769,2.697c-20.475,0-37.072,16.593-37.072,37.067v37.075h74.143V39.764
		C76.839,19.29,60.244,2.697,39.769,2.697L39.769,2.697z M39.769,10.111c-16.371,0-29.657,13.282-29.657,29.653v29.661
		l22.242-22.242v-7.415c0-4.093,3.32-7.415,7.415-7.415s7.414,3.32,7.414,7.415v7.415l22.243,22.242V39.764
		C69.425,23.393,56.141,10.111,39.769,10.111z"/>
</g>
</svg>
